<?xml version="1.0" encoding="utf-8"?>
<!-- Generator: Adobe Illustrator 24.1.1, SVG Export Plug-In . SVG Version: 6.00 Build 0)  -->
<svg version="1.1" id="Layer_1" xmlns="http://www.w3.org/2000/svg" xmlns:xlink="http://www.w3.org/1999/xlink" x="0px" y="0px"
	 viewBox="0 0 1080 1080" style="enable-background:new 0 0 1080 1080;" xml:space="preserve">
<style type="text/css">
	.st0{fill:url(#SVGID_1_);}
	.st1{fill:url(#SVGID_2_);}
	.st2{fill:#FAB700;}
	.st3{opacity:0.2;}
	.st4{fill:#FFFFFF;}
	.st5{fill:#F5F4F4;}
	.st6{fill:#EAEAE9;}
	.st7{fill:#E0DFDE;}
	.st8{fill:#D6D5D3;}
	.st9{fill:#CBCAC8;}
	.st10{fill:#C1BFBD;}
	.st11{fill:#B7B5B2;}
	.st12{fill:#ADAAA8;}
	.st13{fill:#A29F9D;}
	.st14{fill:#989592;}
	.st15{fill:#8E8A87;}
	.st16{fill:#83807C;}
	.st17{fill:#797571;}
	.st18{fill:#6F6A66;}
	.st19{fill:#64605B;}
	.st20{fill:#5A5550;}
	.st21{font-family:'Montserrat-Black';}
	.st22{font-size:6.1971px;}
	.st23{fill:#121F49;}
	.st24{font-size:4.0837px;}
</style>
<g>
	
		<radialGradient id="SVGID_1_" cx="871.9988" cy="744.2812" r="5.1462" gradientTransform="matrix(0 0.1693 -0.0844 0 563.6483 602.9501)" gradientUnits="userSpaceOnUse">
		<stop  offset="0" style="stop-color:#EFEFEF;stop-opacity:0.4"/>
		<stop  offset="1" style="stop-color:#FFFDFD;stop-opacity:0"/>
	</radialGradient>
	<path class="st0" d="M501.16,750.56c0-0.52-0.16-1.03-0.36-0.93v1.87C501,751.4,501.16,751.07,501.16,750.56z"/>
	
		<radialGradient id="SVGID_2_" cx="263.2646" cy="923.3689" r="19.2724" gradientTransform="matrix(0.1658 0 0 0.027 456.6445 723.0806)" gradientUnits="userSpaceOnUse">
		<stop  offset="0" style="stop-color:#EFEFEF;stop-opacity:0.4"/>
		<stop  offset="1" style="stop-color:#FFFDFD;stop-opacity:0"/>
	</radialGradient>
	<line class="st1" x1="496.7" y1="747.89" x2="503.6" y2="740.77"/>
	<g>
		<g>
			<path class="st2" d="M500.79,750.19v0.87c0,0-6.26,1.11-6.33-0.02c0-0.01,0-0.01,0-0.02c0-0.15,0.03-0.49,0.16-0.73
				C495.8,750.98,500.79,750.19,500.79,750.19z"/>
			<path class="st2" d="M504.09,739.25c-0.33-0.3-0.99,0.1-1.39,0.55c-0.24,0.27-0.97,1.08-0.97,1.08
				c-0.11-0.02-0.34-0.04-0.46-0.05l0.13-0.15l-0.24-0.23l-0.28,0.33c-1.37-0.17-2.58-0.13-2.58-0.13l-0.41,0.51l2.7,1.03
				l-1.94,2.21c-0.67-0.19-1.2-0.01-1.2-0.01l-0.22,0.24l0.82,0.46c-1.24,1.29-3.56,3.94-3.6,4.84c0,0.01,0,0.17,0,0.18v0.87
				c0-0.15,0.1-0.36,0.21-0.59c0.65-1.28,2.99-3.57,4.13-4.7l0.59,0.98l0.19-0.26c0,0,0.25-0.44-0.14-1.4l2.07-2.1l1.11,2.63
				l0.42-0.5c0,0,0.02-0.88-0.26-2.35l0.29-0.36l-0.24-0.23l-0.14,0.17c-0.03-0.13-0.08-0.33-0.11-0.46c0,0,0.89-0.9,1.14-1.2
				C504.03,740.25,504.43,739.55,504.09,739.25z"/>
		</g>
	</g>
	<g class="st3">
		<path class="st4" d="M500.65,749.63c-0.02-0.02-0.04,0-0.06,0.05c-0.02,0.05-0.04,0.12-0.05,0.21c-0.03,0.18-0.05,0.43-0.05,0.67
			c0,0.25,0.02,0.45,0.05,0.6c0.01,0.08,0.03,0.14,0.05,0.2c0.02,0.06,0.04,0.1,0.06,0.13v-0.93V749.63z"/>
		<path class="st5" d="M500.54,749.87c-0.03,0.17-0.04,0.46-0.04,0.69s0.02,0.48,0.04,0.62c0.01,0.04,0.02,0.07,0.02,0.1
			c0.01,0.03,0.02,0.06,0.03,0.09c0.02,0.05,0.04,0.09,0.06,0.12v-0.93v-0.93c-0.02-0.01-0.04,0-0.06,0.05
			c-0.01,0.02-0.02,0.05-0.03,0.08C500.56,749.79,500.55,749.83,500.54,749.87z"/>
		<path class="st6" d="M500.56,749.85c-0.03,0.16-0.04,0.49-0.04,0.71s0.02,0.51,0.04,0.64c0.01,0.03,0.02,0.07,0.02,0.09
			s0.02,0.06,0.03,0.08c0.02,0.05,0.04,0.09,0.06,0.12v-0.93v-0.93c-0.02-0.01-0.04,0-0.06,0.04c-0.01,0.02-0.02,0.05-0.03,0.08
			S500.57,749.81,500.56,749.85z"/>
		<path class="st7" d="M500.57,749.84c-0.02,0.15-0.04,0.52-0.04,0.72s0.01,0.54,0.04,0.66c0.01,0.03,0.01,0.06,0.02,0.09
			c0.01,0.03,0.02,0.05,0.02,0.07c0.02,0.04,0.04,0.08,0.06,0.11v-0.93v-0.93c-0.02-0.01-0.04,0-0.06,0.04
			c-0.01,0.02-0.02,0.04-0.02,0.07C500.59,749.77,500.58,749.8,500.57,749.84z"/>
		<path class="st8" d="M500.59,749.82c-0.02,0.13-0.04,0.55-0.04,0.74c0,0.19,0.01,0.57,0.04,0.69c0.01,0.03,0.01,0.06,0.02,0.08
			c0.01,0.02,0.02,0.05,0.02,0.07c0.01,0.04,0.04,0.07,0.05,0.1v-0.93v-0.93c-0.02-0.01-0.04,0-0.05,0.04
			c-0.01,0.02-0.02,0.04-0.02,0.07C500.6,749.76,500.59,749.79,500.59,749.82z"/>
		<path class="st9" d="M500.6,749.8c-0.02,0.12-0.03,0.59-0.03,0.76c0,0.17,0.01,0.6,0.03,0.71c0.01,0.03,0.01,0.05,0.02,0.07
			s0.02,0.04,0.02,0.06c0.01,0.04,0.04,0.07,0.05,0.09v-0.93v-0.93c-0.02-0.01-0.04,0-0.05,0.03c-0.01,0.02-0.02,0.04-0.02,0.06
			S500.6,749.77,500.6,749.8z"/>
		<path class="st10" d="M500.61,749.79c-0.02,0.11-0.03,0.62-0.03,0.77s0.01,0.63,0.03,0.73c0,0.02,0.01,0.05,0.02,0.07
			c0.01,0.02,0.02,0.04,0.02,0.06c0.01,0.03,0.04,0.06,0.05,0.08v-0.93v-0.93c-0.01-0.01-0.04,0-0.05,0.03
			c-0.01,0.01-0.02,0.03-0.02,0.05C500.63,749.73,500.62,749.76,500.61,749.79z"/>
		<path class="st11" d="M500.63,749.77c-0.02,0.1-0.03,0.65-0.03,0.79s0.01,0.66,0.03,0.75c0,0.02,0.01,0.04,0.02,0.06
			c0,0.02,0.02,0.04,0.02,0.05c0.01,0.03,0.03,0.06,0.05,0.07v-0.93v-0.93c-0.01-0.01-0.04,0-0.05,0.03
			c-0.01,0.01-0.02,0.03-0.02,0.05C500.64,749.72,500.63,749.75,500.63,749.77z"/>
		<path class="st12" d="M500.64,749.75c-0.01,0.09-0.02,0.68-0.02,0.8c0,0.12,0.01,0.69,0.02,0.77c0,0.02,0.01,0.04,0.02,0.05
			c0,0.02,0.02,0.03,0.02,0.05c0.01,0.03,0.03,0.05,0.04,0.07v-0.93v-0.93c-0.01-0.01-0.03,0-0.04,0.03c0,0.01-0.02,0.03-0.02,0.04
			C500.65,749.71,500.64,749.73,500.64,749.75z"/>
		<path class="st13" d="M500.65,749.74c-0.01,0.08-0.02,0.71-0.02,0.82c0,0.11,0.01,0.72,0.02,0.79c0,0.02,0.01,0.03,0.02,0.05
			c0,0.01,0.01,0.03,0.02,0.04c0.01,0.02,0.03,0.04,0.04,0.06v-0.93v-0.93c-0.01-0.01-0.03,0-0.04,0.02c0,0.01-0.02,0.02-0.02,0.04
			C500.67,749.7,500.66,749.72,500.65,749.74z"/>
		<path class="st14" d="M500.67,749.72c-0.01,0.07-0.02,0.74-0.02,0.84c0,0.09,0.01,0.75,0.02,0.81c0,0.01,0.01,0.03,0.02,0.04
			c0,0.01,0.01,0.02,0.02,0.03c0.01,0.02,0.03,0.04,0.04,0.05v-0.93v-0.93c-0.01-0.01-0.03,0-0.04,0.02c0,0.01-0.01,0.02-0.02,0.03
			C500.68,749.69,500.67,749.71,500.67,749.72z"/>
		<path class="st15" d="M500.68,749.71c-0.01,0.06-0.01,0.78-0.01,0.85s0.01,0.78,0.01,0.83c0,0.01,0.01,0.02,0.02,0.03
			c0,0.01,0.01,0.02,0.02,0.03c0.01,0.02,0.03,0.03,0.04,0.04v-0.93v-0.93c-0.01,0-0.03,0-0.04,0.02c0,0.01-0.01,0.02-0.02,0.03
			C500.69,749.68,500.68,749.69,500.68,749.71z"/>
		<path class="st16" d="M500.69,749.69c-0.01,0.04-0.01,0.81-0.01,0.87s0,0.81,0.01,0.85c0,0.01,0.01,0.02,0.02,0.03
			s0.01,0.02,0.02,0.02c0,0.01,0.03,0.02,0.03,0.03v-0.93v-0.93c-0.01,0-0.03,0-0.03,0.01c0,0.01-0.01,0.01-0.02,0.02
			C500.71,749.67,500.7,749.68,500.69,749.69z"/>
		<path class="st17" d="M500.71,749.67c-0.01,0.03-0.01,0.84-0.01,0.89c0,0.05,0,0.84,0.01,0.87c0,0.01,0.01,0.01,0.01,0.02
			c0,0.01,0.01,0.01,0.02,0.02c0,0.01,0.03,0.02,0.03,0.02v-0.93v-0.93c0,0-0.03,0-0.03,0.01c0,0-0.01,0.01-0.02,0.02
			C500.72,749.66,500.71,749.66,500.71,749.67z"/>
		<path class="st18" d="M500.72,749.66c0,0.02-0.01,0.87-0.01,0.9c0,0.03,0,0.87,0.01,0.89c0,0,0.01,0.01,0.01,0.01
			c0,0,0.01,0.01,0.01,0.01c0,0.01,0.03,0.01,0.03,0.02v-0.94v-0.94c0,0-0.03,0-0.03,0.01c0,0-0.01,0.01-0.01,0.01
			C500.73,749.65,500.72,749.65,500.72,749.66z"/>
		<path class="st19" d="M500.74,749.64c0,0.01,0,0.9,0,0.92s0,0.9,0,0.91c0,0,0.01,0,0.01,0.01s0.01,0,0.01,0.01
			c0,0,0.03,0.01,0.03,0.01v-0.94v-0.94c0,0-0.03,0-0.03,0c0,0-0.01,0-0.01,0.01S500.74,749.64,500.74,749.64z"/>
		<polygon class="st20" points="500.8,751.49 500.8,750.56 500.8,749.62 500.77,749.62 500.76,749.62 500.75,749.62 500.75,750.56 
			500.75,751.49 500.76,751.49 500.77,751.49 		"/>
	</g>
</g>
<text transform="matrix(1 0 0 1 500.3945 752.5615)" class="st2 st21 st22">RANA</text>
<path class="st23" d="M532.54,749.52c-1.56-0.47-3.65-0.65-4.76-0.76c-2.1-0.21-2.61-0.37-2.89-0.47c-1.06-0.37-1.48-0.76-2.47-1.3
	c-1.33-0.73-2.42-1.03-3.77-1.4c-4.39-1.21-8.36-0.53-10.27-0.21c-1.37,0.23-2.52,0.44-3.93,1.08c-1.23,0.56-1.23,0.81-2.08,1
	c-1.69,0.39-3.21-0.2-3.54,0.45c-0.08,0.15-0.23,0.96-0.28,1.31c-0.02-1.46,0.13-1.85,0.18-1.93c0.34-0.65,1.98-0.06,3.67-0.45
	c0.85-0.2,0.85-0.44,2.08-1c1.41-0.64,2.56-0.84,3.93-1.08c1.92-0.33,5.88-1,10.27,0.21c1.35,0.37,2.44,0.67,3.77,1.4
	c1,0.54,1.41,0.94,2.47,1.3c0.28,0.1,0.79,0.26,2.89,0.47c1.1,0.11,3.19,0.29,4.76,0.76c0.39,0.12,1.03,0.34,1.31,0.88
	c0.08,0.16,0.59,1.3,0.59,1.59c0,0.18-0.04,0.24-0.07,0.37C533.86,749.51,532.93,749.64,532.54,749.52z"/>
<text transform="matrix(1 0 0 1 520.0703 752.4844)" class="st23 st21 st24">TOUR</text>
</svg>
